<svg width="45" height="45" xmlns="http://www.w3.org/2000/svg" xmlns:xlink="http://www.w3.org/1999/xlink" xmlns:svgjs="http://svgjs.com/svgjs" viewBox="663 371 45 45"><svg width="45" height="45" xmlns="http://www.w3.org/2000/svg" xmlns:xlink="http://www.w3.org/1999/xlink" xmlns:svgjs="http://svgjs.com/svgjs" viewBox="663 371 45 45" x="663" y="371"><svg width="45" height="45" xmlns="http://www.w3.org/2000/svg" xmlns:xlink="http://www.w3.org/1999/xlink" xmlns:svgjs="http://svgjs.com/svgjs" fill="#006f17" x="663" y="371"><svg xmlns="http://www.w3.org/2000/svg" xmlns:xlink="http://www.w3.org/1999/xlink" width="45" height="45"><path paint-order="stroke fill markers" fill-rule="evenodd" d="M22.5 45C10.057 45 0 34.942 0 22.5 0 10.057 10.057 0 22.5 0 34.942 0 45 10.057 45 22.5 45 34.942 34.942 45 22.5 45z"/></svg></svg></svg><svg width="21" height="29" xmlns="http://www.w3.org/2000/svg" xmlns:xlink="http://www.w3.org/1999/xlink" xmlns:svgjs="http://svgjs.com/svgjs" viewBox="0.35 0 20.3 29" fill="#fff" x="675" y="379"><svg xmlns="http://www.w3.org/2000/svg" width="21" height="29" viewBox="0.952 0.313 19.994 28.562"><path paint-order="stroke fill markers" fill-rule="evenodd" d="M10.948.313A9.99 9.99 0 0 0 .952 10.31c0 7.497 9.996 18.565 9.996 18.565s9.997-11.068 9.997-18.565A9.99 9.99 0 0 0 10.948.313zm0 13.567a3.571 3.571 0 0 1 0-7.14 3.571 3.571 0 0 1 0 7.14z"/></svg></svg></svg>