<svg width="27" height="27" xmlns="http://www.w3.org/2000/svg" xmlns:xlink="http://www.w3.org/1999/xlink" xmlns:svgjs="http://svgjs.com/svgjs" viewBox="409 240 27 27"><svg width="27" height="27" xmlns="http://www.w3.org/2000/svg" xmlns:xlink="http://www.w3.org/1999/xlink" xmlns:svgjs="http://svgjs.com/svgjs" fill="#8e8e93" opacity=".62" x="409" y="240"><svg xmlns="http://www.w3.org/2000/svg" width="27" height="27"><path paint-order="stroke fill markers" fill-rule="evenodd" d="M25.405 27c-.434 0-.854-.18-1.154-.494l-7.385-7.39-.007.006a10.36 10.36 0 0 1-6.212 2.048h-.04a10.605 10.605 0 0 1-7.487-3.13A10.606 10.606 0 0 1 0 10.546a10.552 10.552 0 0 1 3.065-7.471A10.56 10.56 0 0 1 10.485 0h.045a10.605 10.605 0 0 1 7.487 3.13c2 2.002 3.107 4.663 3.12 7.493a10.39 10.39 0 0 1-2.026 6.234l7.393 7.394A1.593 1.593 0 0 1 25.405 27zM10.498 2.118c-2.209 0-4.37.897-5.932 2.461a8.446 8.446 0 0 0-2.452 5.975 8.487 8.487 0 0 0 2.496 5.994 8.486 8.486 0 0 0 5.99 2.504h.033a8.446 8.446 0 0 0 5.938-2.463 8.435 8.435 0 0 0 2.452-5.974 8.483 8.483 0 0 0-2.496-5.994 8.48 8.48 0 0 0-5.99-2.503h-.039z"/></svg></svg></svg>